<?xml version="1.0" encoding="utf-8"?>
<svg viewBox="0 0 973 831" xmlns="http://www.w3.org/2000/svg" fill-rule="evenodd" clip-rule="evenodd" stroke-linejoin="round" stroke-miterlimit="1.41421">
  <path d="M265.84 29.66C295.05 3.66 340.9-1.67 382.63.4c131.09 6.51 249.43 69.8 351.79 141.39 37 25.91 73.53 53.84 97.59 89.53 49 72.65 34.44 173.29-33.65 233.13-23.16 20.37-51.25 36-80.07 49.81-51.26 24.61-106.57 44.36-164.75 50-41.49 4-83.49.75-124.73-4.84-115.24-15.65-228.35-50.21-323.15-109.33-41.58-25.93-80.77-58.17-97.91-100.12s-6.17-95.12 36.29-119.95c17.56-10.27 38.55-14.9 59.11-19.26 30.25-6.41 61-12.73 88.3-25.76 28.2-13.46 61.59-39.5 56-69.29-5.98-31.97-10.79-60.05 18.39-86.05z" fill="#1daeea" fill-opacity=".1" fill-rule="nonzero"/>
  <path d="M385.87 279.38v117.6c0 28.866 23.754 52.62 52.62 52.62H508.76c25.932 0 47.27-21.338 47.27-47.27V279.38c0-46.674-38.406-85.08-85.08-85.08s-85.08 38.406-85.08 85.08z" fill="#65617d" fill-rule="nonzero"/>
  <path d="M385.87 279.38v117.6c0 28.866 23.754 52.62 52.62 52.62H508.76c25.932 0 47.27-21.338 47.27-47.27V279.38c0-46.674-38.406-85.08-85.08-85.08s-85.08 38.406-85.08 85.08z" fill-opacity=".1" fill-rule="nonzero"/>
  <path d="M388.4 280.64v114.1c0 28.011 23.049 51.06 51.06 51.06h68.18c25.158 0 45.86-20.702 45.86-45.86v-119.3c0-45.286-37.264-82.55-82.55-82.55-45.286 0-82.55 37.264-82.55 82.55z" fill="#65617d" fill-rule="nonzero"/>
  <path d="M408.9 297.5v94.88c-.04 8.584 2.349 17.006 6.89 24.29 6.94 11 18.46 18.19 31.51 18.19h51.21c12.44 0 23.34-7.27 29.4-18.19 3.374-6.123 5.126-13.009 5.09-20V297.5c0-37.91-27.78-68.65-62.05-68.65-17.13 0-32.64 7.68-43.87 20.11-11.851 13.371-18.331 30.674-18.18 48.54z" fill-opacity=".1" fill-rule="nonzero"/>
  <circle cx="580.45" cy="623.42" r="9.39" fill="#333f4f"/>
  <circle cx="563.65" cy="660.16" r="9.39" fill="#333f4f"/>
  <circle cx="396.12" cy="666.81" r="9.39" fill="#333f4f"/>
  <circle cx="358.69" cy="618.88" r="9.39" fill="#333f4f"/>
  <path fill="#333f4f" d="M464.64 457.59h11.76v73.47h-11.76z"/>
  <path fill="#333f4f" fill-opacity=".1" d="M464.64 519.17h11.76v11.9h-11.76z"/>
  <path fill="#333f4f" d="M478.67 603.48h-16.3v-81.52h16.3z"/>
  <path d="M360.73 602.95l106.71-4.37v17.14H343.6c2.525-7.366 9.35-12.454 17.13-12.77z" fill="#333f4f" fill-rule="nonzero"/>
  <path d="M574.16 602.95l-106.72-4.37v17.14h123.85c-2.525-7.366-9.35-12.454-17.13-12.77z" fill="#333f4f" fill-rule="nonzero"/>
  <path d="M478.68 600.33l85.19 42c7.346 3.634 12.01 11.155 12 19.35v1.27l-99.5-43.38-14-1-82.74 52.83c-1.071-7.944 2.37-15.856 8.91-20.49l73.83-52.28 16.31 1.7z" fill="#333f4f" fill-rule="nonzero"/>
  <path d="M464.65 457.59v7.92c2.047.08 4.143.12 6.29.12 1.85 0 3.67 0 5.46-.09v-7.95h-11.75z" fill="#333f4f" fill-opacity=".1" fill-rule="nonzero"/>
  <ellipse cx="470.94" cy="450.15" rx="43.39" ry="12.69" fill="#333f4f"/>
  <path d="M427.93 450.14c.082 1.426.752 2.756 1.85 3.67.43.415.891.796 1.38 1.14 6.46 4.62 22 7.88 40.15 7.88s33.82-3.29 40.25-7.95c.321-.221.628-.462.92-.72 1.293-.942 2.109-2.405 2.23-4 0-7-19.42-12.69-43.4-12.69-23.98 0-43.38 5.66-43.38 12.67z" fill="#333f4f" fill-rule="nonzero"/>
  <path d="M427.93 450.14c.082 1.426.752 2.756 1.85 3.67.43.415.891.796 1.38 1.14 6.46 4.62 22 7.88 40.15 7.88s33.82-3.29 40.25-7.95c.321-.221.628-.462.92-.72 1.293-.942 2.109-2.405 2.23-4 0-7-19.42-12.69-43.4-12.69-23.98 0-43.38 5.66-43.38 12.67z" fill="#333f4f" fill-opacity=".1" fill-rule="nonzero"/>
  <path d="M427.56 450.14c.081 1.426.751 2.757 1.85 3.67 5.53-1.37 9.35-2.52 9.35-2.52s38.24 2.14 73.35 2.87c1.294-.941 2.11-2.405 2.23-4 0-7-19.42-12.69-43.4-12.69-23.98 0-43.38 5.66-43.38 12.67z" fill="#333f4f" fill-opacity=".1" fill-rule="nonzero"/>
  <path d="M397.56 423.92c9.537 13.713 25.227 21.9 41.93 21.88h68.12c15.941.012 30.786-8.291 39.12-21.88H397.56z" fill="#333f4f" fill-opacity=".1" fill-rule="nonzero"/>
  <path d="M427.93 450.14c.082 1.426.752 2.756 1.85 3.67.43.415.891.796 1.38 1.14 26.776 1.627 53.627 1.603 80.4-.07.321-.221.628-.462.92-.72 1.293-.942 2.109-2.405 2.23-4 0-7-19.42-12.69-43.4-12.69-23.98 0-43.38 5.66-43.38 12.67z" fill="#333f4f" fill-opacity=".1" fill-rule="nonzero"/>
  <path d="M388.93 448.98c54.709 6.91 110.071 6.91 164.78 0h.05c6.325 0 11.53-5.205 11.53-11.53 0-6.325-5.205-11.53-11.53-11.53H388.93c-6.325 0-11.53 5.205-11.53 11.53 0 6.325 5.205 11.53 11.53 11.53z" fill="#333f4f" fill-rule="nonzero"/>
  <path d="M540.8 574.56s11.37 11.64 19.13 12.75c7.76 1.11 14.14 26.06 3.33 28-10.81 1.94-31.61-5.82-34.66-9.15-3.05-3.33-14.14-23-14.14-23l26.34-8.6z" fill="#65617d" fill-rule="nonzero"/>
  <path d="M478.14 450.35s27.73 52.95 28.28 60.16c.55 7.21 24.12 37.76 24.12 37.76l-29.39 37.1s-3.88-9.43-10.53-12.76c-6.65-3.33-5.27-10.81-5.27-10.81s-6.93 0-11.92-8.32-11.09-16.63-11.09-20.21c0-3.58-36.6-41.31-36.6-41.31l2.77-40.2 7.49-12.75 42.14 11.34z" fill="#3f3d56" fill-rule="nonzero"/>
  <path d="M550.23 453.4l.24.21c3.36 3 41.07 36.42 41.07 37.21 0 .79 13.58 23.29-3.33 42.7-16.91 19.41-55.73 51.29-55.73 51.29s-16.91 12.2-19.13 14.7c-2.22 2.5-35.76 0-15.8-22.74 19.96-22.74 38.81-48.24 38.81-48.24s-33.27-8-35.48-13.58c-2.21-5.58 43.8-74.86 43.8-74.86l5.55 13.31z" fill-opacity=".1" fill-rule="nonzero"/>
  <path d="M551.34 453.4l.24.21c3.36 3 41.07 36.42 41.07 37.21 0 .79 13.58 23.29-3.33 42.7-16.91 19.41-55.73 51.29-55.73 51.29s-16.91 12.2-19.13 14.7c-2.22 2.5-35.77 0-15.8-22.74 19.97-22.74 38.81-48.24 38.81-48.24s-33.27-8-35.49-13.58c-2.22-5.58-46-73.48-46-73.48l89.83-1.38 5.53 13.31z" fill="#3f3d56" fill-rule="nonzero"/>
  <path d="M455.41 304.27l3.32 30.22s34.1 13.59 34.94 13.31c.84-.28 22.73-20 19.13-33-1.81-6.53-2.64-15.59-3-23-.36-7.41-.31-13.05-.31-13.05S459.86 261 464.3 273.2c1.61 4.43.88 9.74-.7 14.7-1.985 5.799-4.74 11.305-8.19 16.37z" fill="#fbbebe" fill-rule="nonzero"/>
  <path d="M463.58 287.88c.3.35.61.68.92 1 11.926 12.638 31.849 13.905 45.28 2.88-.38-7.34-.31-13.05-.31-13.05s-49.63-17.75-45.19-5.55c1.61 4.45.88 9.76-.7 14.72z" fill-opacity=".1" fill-rule="nonzero"/>
  <path d="M455.41 264.95c.005 18.242 15.018 33.25 33.26 33.25 18.246 0 33.26-15.014 33.26-33.26 0-18.242-15.008-33.255-33.25-33.26-.07 0-.14-.001-.211-.001-18.136 0-33.06 14.924-33.06 33.06 0 .071.001.141.001.211z" fill="#fbbebe" fill-rule="nonzero"/>
  <path d="M496.44 335.61s13-28.88 17.47-28.88c4.47 0 11.38 149.39 11.38 149.39l-67.92 1.06-2.78-78.43 13.85-69.48s12.47 27.41 28 26.34z" fill-opacity=".1" fill-rule="nonzero"/>
  <path d="M496.44 337.83s13-28.88 17.47-28.88c4.47 0 11.38 149.38 11.38 149.38l-77.07 1.17 6.37-78.53 13.87-69.53s12.45 27.46 27.98 26.39z" fill-opacity=".1" fill-rule="nonzero"/>
  <path d="M496.44 336.72s13-28.88 17.47-28.88c4.47 0 11.38 149.43 11.38 149.43l-77.07 1.17 6.37-78.53 13.87-69.53s12.45 27.41 27.98 26.34z" fill="#65617d" fill-rule="nonzero"/>
  <path d="M509.08 298.77s2.33-3.41 5.66-2.3c3.33 1.11 5.82-1.94 9.15 1.11s16.63 7.21 19.13 5.82c2.5-1.39 11.36 4.72 13.31 8.32 1.95 3.6 8.31 13.31 8.31 13.31s5.55 6.65 4.72 10.26c-.83 3.61 1.94 7.76 5.26 9.42 3.32 1.66 10 18.3 10 18.3s-1.81 22.26 5.67 26.13c7.48 3.87 1.94 20.8 1.94 20.8l-35.36-8.39-10-22.74s3.88 66.55 8.59 72.64c4.71 6.09 5.27 10 5.27 10s-18.3 3.88-22.18 7.2c-3.88 3.32-14.14-.83-14.14-.83l-10-88.44s-3.6-16.64-3.6-25.23-1.73-55.38-1.73-55.38z" fill-opacity=".1" fill-rule="nonzero"/>
  <path d="M510.19 298.77s2.33-3.41 5.66-2.3c3.33 1.11 5.82-1.94 9.15 1.11s16.63 7.21 19.13 5.82c2.5-1.39 11.36 4.72 13.3 8.32 1.94 3.6 8.32 13.31 8.32 13.31s5.55 6.65 4.72 10.26c-.83 3.61 1.94 7.76 5.26 9.42 3.32 1.66 10 18.3 10 18.3s-1.79 22.25 5.7 26.13c1.87 1 2.93 3.13 3.46 5.83 2.15 10.86-6.76 20.8-17.83 20.46l-19-7.88-10-28.74s3.88 66.55 8.59 72.64c4.71 6.09 5.27 10 5.27 10s-18.3 3.88-22.18 7.2c-3.88 3.32-14.14-.83-14.14-.83l-10-88.44s-3.6-16.64-3.6-25.23-1.81-55.38-1.81-55.38z" fill="#1daeea" fill-rule="nonzero"/>
  <path d="M571.29 346.93s-3.33 9.15-12.48 8.32c-9.15-.83 12.48-8.32 12.48-8.32zM562.43 333.07s-6.1 1.11-8.32 6.37c-2.22 5.26 8.32-6.37 8.32-6.37zM545.29 323.64c0 1.11-3.89 20.52 0 28.56s3.32 17.47 3.32 17.47l-3.32-46.03zM463.4 292.09s-2.17-2.55-4.39-2.27c-2.22.28-3.6 1.66-6.38 2.77s-9.42 1.39-9.42 2.22c0 .83-5.83 4.16-9.71 5-3.88.84-16.08 9.15-19.13 25.23-3.05 16.08-8.32 20.79-8.32 20.79l29.39 14.44s-22.73 96.48-25.5 103.41c-2.77 6.93-3 48-3 48s18 8 22.73 10.53c4.73 2.53 2.77-23.84 12.48-39.09 9.71-15.25 20.79-37.43 20.79-37.43l16.86-47.42s10.82-63.21 1.67-74.86c-9.15-11.65-18.9-27.14-18.07-31.32z" fill-opacity=".1" fill-rule="nonzero"/>
  <path d="M462.29 292.09s-2.17-2.55-4.39-2.27c-2.22.28-3.6 1.66-6.38 2.77s-9.42 1.39-9.42 2.22c0 .83-5.82 4.16-9.71 5-3.89.84-16.1 9.14-19.1 25.22s-8.31 20.79-8.31 20.79l29.31 14.45s-22.73 96.48-25.5 103.41c-2.77 6.93-3 48-3 48s18 8 22.73 10.53c4.73 2.53 2.77-23.94 12.47-39.15 9.7-15.21 20.79-37.43 20.79-37.43l16.91-47.36s10.82-63.21 1.67-74.86c-9.15-11.65-18.9-27.14-18.07-31.32z" fill="#1daeea" fill-rule="nonzero"/>
  <path d="M402.17 413.47c.82.13 1.87.26 3.08.37 8.88.81 26.31 1 26.31 1s13-25.79 24.12-25c0 0-10.26-11.64-14.41-10.25-.7.23-1.14-.28-1.35-1.28-1.11-5 2.73-22 2.73-22l5.27-23-30.5 7.48c-2.77.56-11.37 5-11.37 5s-.27 11.92-2.49 14.7c-2.22 2.78-4.71 16.08-4.44 19.4.27 3.32-3.05 18.86.28 23 3.33 4.14-4.11 9.47 2.77 10.58z" fill-opacity=".1" fill-rule="nonzero"/>
  <path d="M516.12 595.07s1.67 9.15-.27 15-1.67 18.58-.28 23c1.39 4.42 6.1 10.53-6.65 13.3-12.75 2.77-21.35.28-21.91-1.94-.56-2.22-3.32-11.09-1.11-16.08 2.21-4.99 3-18-1.11-25.51-4.11-7.51-1.38-19.13 2.5-20.51 3.88-1.38 10.54-4.44 10.54-4.44s-7.21 13-.56 15.81c6.65 2.81 18.85 1.37 18.85 1.37z" fill="#65617d" fill-rule="nonzero"/>
  <path d="M455.41 264.95c-.018 8.496 3.239 16.68 9.09 22.84.031-.051.057-.105.08-.16 1-2.11 1.93-4.3 1.85-6.61-.09-2.79-1.7-5.31-2.22-8.07-.65-3.48.49-7 1.61-10.38.82-2.46 2.41-5.45 5-5.15.5.128 1.014.189 1.53.18 1.37-.21 1.65-2 1.81-3.38.85-6.635 5.945-11.985 12.53-13.16.729-.162 1.49-.11 2.19.15 1 .43 1.49 1.47 2.36 2.07 2.81 1.95 6.39-1.78 9.81-1.49 2.91.24 4.68 3.21 5.88 5.87 1.2 2.66 2.69 5.69 5.54 6.31.452.134.939.08 1.35-.15.88-.65.27-2-.18-3-1.17-2.64-.39-4.73 1-6.61-6.307-7.898-15.883-12.506-25.99-12.506-18.246 0-33.26 15.015-33.26 33.26v.006l.02-.02z" fill-opacity=".1" fill-rule="nonzero"/>
  <path d="M513.62 249.69c.45 1 1.07 2.38.17 3-.406.235-.892.289-1.34.15-2.85-.61-4.35-3.65-5.55-6.31-1.2-2.66-3-5.63-5.87-5.87-3.42-.29-7 3.44-9.82 1.49-.86-.6-1.39-1.64-2.35-2.07-.701-.256-1.462-.305-2.19-.14-6.586 1.17-11.684 6.516-12.54 13.15-.14 1.37-.43 3.17-1.8 3.38-.516.009-1.03-.051-1.53-.18-2.58-.3-4.16 2.68-5 5.14-1.12 3.37-2.26 6.91-1.61 10.39.52 2.76 2.13 5.28 2.22 8.08.07 2.3-.9 4.5-1.85 6.6-.95 2.1-2.52 4.56-4.8 4.26-1.88-.24-2.91-2.23-3.81-3.9-.9-1.67-2.52-3.45-4.34-2.93-.82.24-1.66.93-2.4.51-.391-.288-.645-.727-.7-1.21-.89-3.87.39-8.23-1.5-11.73-1.45-2.69-4.39-4.15-6.78-6.06-4.609-3.683-7.297-9.272-7.297-15.171 0-4.631 1.656-9.111 4.667-12.629 2.56-3 6.24-5.64 6.45-9.57.15-3-1.87-5.75-1.89-8.75-.02-3 1.85-5.52 4-7.51 6.258-5.727 14.952-8.019 23.22-6.12 2.15.52 4.31 1.32 6.5 1.05 2.55-.32 4.67-2 7-3.18 7.842-3.68 17.288-1.128 22.21 6 2.62 4.09 3.65 9.42 7.57 12.29 2.57 1.88 6.27 2.59 7.69 5.44.85 1.72.61 3.75.35 5.64-.402 3.108-1.899 5.974-4.22 8.08-2.41 2.48-4.46 5.07-2.86 8.68z" fill="#512e4e" fill-rule="nonzero"/>
  <g opacity=".1">
    <path d="M442.86 222.73c-.259-.753-.456-1.525-.59-2.31.26.752.457 1.525.59 2.31zM513.06 247.27c-.14-.508-.324-1.004-.55-1.48-1.6-3.62.45-6.2 2.84-8.62 2.315-2.109 3.808-4.974 4.21-8.08.135-.847.215-1.702.24-2.56.196.251.37.519.52.8.85 1.72.61 3.75.35 5.64-.402 3.108-1.899 5.974-4.22 8.08-1.82 1.87-3.44 3.81-3.39 6.22zM450.52 280.07c1.82-.53 3.44 1.27 4.34 2.93.9 1.66 1.93 3.66 3.81 3.9 2.28.29 3.85-2.17 4.8-4.26.95-2.09 1.93-4.3 1.85-6.6-.012-.278-.038-.555-.08-.83.65 1.495 1.052 3.086 1.19 4.71.07 2.3-.9 4.5-1.85 6.6-.95 2.1-2.52 4.56-4.8 4.26-1.88-.24-2.91-2.23-3.81-3.9-.9-1.67-2.52-3.45-4.34-2.93-.82.24-1.66.93-2.4.51-.391-.288-.645-.727-.7-1.21-.186-.869-.297-1.752-.33-2.64.72.32 1.54-.34 2.32-.54zM439.14 261.58c2.39 1.91 5.34 3.37 6.79 6.06.585 1.169.925 2.445 1 3.75-1.47-2.6-4.35-4.05-6.7-5.93-3.689-2.973-6.177-7.185-7-11.85 1.248 3.122 3.285 5.869 5.91 7.97zM464.15 271.38c-.443-1.109-.794-2.253-1.05-3.42-.65-3.48.49-7 1.61-10.39.82-2.46 2.41-5.44 5-5.14.5.128 1.014.189 1.53.18 1.37-.21 1.66-2 1.8-3.39.866-6.628 5.96-11.966 12.54-13.14.728-.17 1.49-.122 2.19.14 1 .43 1.49 1.47 2.35 2.07 2.82 2 6.4-1.78 9.82-1.49 2.9.24 4.68 3.21 5.88 5.87 1.2 2.66 2.7 5.69 5.54 6.31.448.139.934.085 1.34-.15.265-.195.428-.501.44-.83.09.583.258 1.152.5 1.69.45 1 1.07 2.38.17 3-.406.235-.892.289-1.34.15-2.85-.61-4.35-3.65-5.55-6.31-1.2-2.66-3-5.63-5.87-5.87-3.42-.29-7 3.44-9.82 1.49-.86-.6-1.39-1.64-2.35-2.07-.701-.256-1.462-.305-2.19-.14-6.586 1.17-11.684 6.516-12.54 13.15-.14 1.37-.43 3.17-1.8 3.38-.516.009-1.03-.051-1.53-.18-2.58-.3-4.16 2.68-5 5.14-1.07 3.24-2.14 6.62-1.67 9.95z" fill-rule="nonzero"/>
  </g>
  <path d="M405.29 413.84c8.88.81 26.31 1 26.31 1s13-25.79 24.12-25c0 0-10.26-11.64-14.41-10.25-.7.23-1.14-.28-1.35-1.28-10.86 3.32-31.56 11.43-33.59 25.67-.58 3.88-.93 7.12-1.08 9.86z" fill-opacity=".1" fill-rule="nonzero"/>
  <path d="M404.14 413.84c8.88.81 26.31 1 26.31 1s13-25.79 24.12-25c0 0-10.25-11.64-14.41-10.25-.7.23-1.13-.28-1.35-1.28-10.86 3.32-31.56 11.43-33.59 25.67-.54 3.88-.88 7.12-1.08 9.86z" fill="#1daeea" fill-rule="nonzero"/>
  <path d="M482.02 488.05s-25-6.1-28.83-2.77c-3.83 3.33 28.83 2.77 28.83 2.77zM553.55 511.9s-10.53 6.1-11.64 11.09c-1.11 4.99 11.64-11.09 11.64-11.09zM511.41 624.27s-14.42-2.22-18.11.18c-3.69 2.4 18.11-.18 18.11-.18z" fill-opacity=".1" fill-rule="nonzero"/>
  <path d="M367.36 817.81s55.88-3 69.5-11c13.62-8 32.9-8 33-8l222.5-48.54 92.5-22 16.5-2.17-54.5-62.36-1.66-.72-80.34-34.75s-36 2-43.11 25.46c-.487 1.653-.822 3.346-1 5.06-.746 7.311 1.282 14.642 5.68 20.53 2.84 3.89 6.33 9.39 7.43 14.25.62 2.74.48 5.27-1 7.2-3 2.978-6.312 5.623-9.88 7.89-19.59 13-69.11 34.42-155.62 1.61 0 0-37-36.5-65-21s-35 128.54-35 128.54z" fill="#e1dee5" fill-rule="nonzero"/>
  <path d="M633.82 693.61c.62 2.74.48 5.27-1 7.2-3 2.978-6.312 5.623-9.88 7.89l168.42 12.57-46.16-58.25-80.34-34.75s-36 2-43.11 25.46c-.487 1.653-.822 3.346-1 5.06-.746 7.311 1.282 14.642 5.68 20.53 2.8 3.95 6.29 9.43 7.39 14.29z" fill-opacity=".1" fill-rule="nonzero"/>
  <path d="M798.36 464.31l-138 3V632.5l131 88.81 31.5-29-6.5-96 6.5-89.5-24.5-42.5z" fill="#65617d" fill-rule="nonzero"/>
  <path d="M876.86 437.27l-161.12-49.61c-2.91-.897-5.964-1.236-9-1l-384.9 28.1c-32.919 2.254-64.611 13.432-91.66 32.33-24.91 17.57-49.58 44.54-61 85.37-8.233 30.134-7.632 62.008 1.73 91.81l33.95 110s-25.5-239 229-251l443-46z" fill="#d9d6df" fill-rule="nonzero"/>
  <path d="M626.39 679.36c2.84 3.89 6.33 9.39 7.43 14.25 4.36-5.05 5.3-10.75-1-15.3-7.89-5.74-10.52-15.7-11.11-24.54-.487 1.653-.822 3.346-1 5.06-.746 7.311 1.282 14.642 5.68 20.53z" fill="#fff" fill-opacity=".1" fill-rule="nonzero"/>
  <path d="M222.36 706.27l19 64.5 43 42 54 11 84-15v-298.5s-14.5-9.5-16-9.5-42 6.5-42 6.5l-91.7 65.77-3.8 2.73-41 61-5.5 69.5z" fill="#65617d" fill-rule="nonzero"/>
  <path d="M422.36 497.81v311l-8.1 1.45V497.81h8.1z" fill="#65617d" fill-rule="nonzero"/>
  <path d="M798.36 464.31l-138 3V632.5l131 88.81 31.5-29-6.5-96 6.5-89.5-24.5-42.5zM422.36 497.81v311l-8.1 1.45V497.81h8.1z" fill-opacity=".1" fill-rule="nonzero"/>
  <path d="M270.86 593.81c60-49.3 126.7-56.55 151.5-57.45v-26.09s-14.5-9.5-16-9.5-42 6.5-42 6.5l-91.7 65.77-1.8 20.77z" fill-opacity=".1" fill-rule="nonzero"/>
  <path d="M937.86 567.27s-6.19 16.36-12.83 35.41c-5.88 16.93-12.12 36-14.67 47.59-1 4.43-3.51 9-7.06 13.47-16.19 20.55-53.5 40.46-59.94 47.53-7.85 8.62-52 14.83-52 14.83V460.81l29.5-9.5h37.5l48.5 22 25 37 6 56.96z" fill="#65617d" fill-rule="nonzero"/>
  <path d="M423.29 412.09c1.94 2.36 60.86 2.91 63.91 2.22l5.54-1.25s28.44 15.31 48-9.74c.84-1.07 1.66-2.21 2.46-3.43 19.55-29.8-45.61-8-45.61-8s-24.95.14-31.33.14h-.66c-6.63-.27-19.85-4.29-19.85-4.29s-24.39 22-22.46 24.35z" fill="#fbbebe" fill-rule="nonzero"/>
  <path d="M509.29 403.11s24.95.14 31.33.21h.15c.84-1.07 1.66-2.21 2.46-3.43 19.55-29.8-45.61-8-45.61-8s-24.95.14-31.33.14h-.66c-.63.82-1.25 1.68-1.86 2.59-19.89 29.54 45.52 8.49 45.52 8.49z" fill-opacity=".1" fill-rule="nonzero"/>
  <path d="M561.07 405.85s-14.09-4.46-20.47-4.53c-6.38-.07-31.33-.2-31.33-.2s-65.39 21-45.52-8.55c19.87-29.55 50.61-12.61 50.61-12.61l5.55-1.19c3.06-.66 62 .55 63.88 2.93 1.88 2.38-22.72 24.15-22.72 24.15z" fill="#fbbebe" fill-rule="nonzero"/>
  <path d="M590.29 389.14s-.4 19.23-13.73 20.33c-28 2.29-20.88-8.53-20.88-8.53l2.42-21.54 13.19-11.94s5.79 2.66 6.54 2.21c.75-.45 12.46 19.47 12.46 19.47zM401.06 413.47c.82.13 1.87.26 3.08.37 8.88.81 26.31 1 26.31 1s13-25.79 24.12-25c0 0-10.25-11.64-14.41-10.25-.7.23-1.13-.28-1.35-1.28-1.1-5 2.73-22 2.73-22l5.27-23-30.52 7.52c-2.77.56-11.36 5-11.36 5s-.28 11.92-2.5 14.7c-2.22 2.78-4.71 16.08-4.44 19.4.27 3.32-3.05 18.86.28 23 3.33 4.14-4.14 9.43 2.79 10.54z" fill="#1daeea" fill-rule="nonzero"/>
  <path d="M432.39 353.03s-25.5 2.77-26.61 9.15c-1.11 6.38 26.61-9.15 26.61-9.15zM417.14 377.98c-1.66.56-11.36 3.05-13.3 8.88-1.94 5.83 13.3-8.88 13.3-8.88zM405.29 414.87c8.88.81 26.31 1 26.31 1s13-25.79 24.12-25c0 0-10.26-11.64-14.41-10.25-.7.23-1.14-.28-1.35-1.28-10.86 3.32-31.56 11.43-33.59 25.67-.58 3.88-.93 7.12-1.08 9.86zM562.429 408.483c-11.078-1.305-6.4-7.538-6.4-7.538s1.647-20.05 2.087-21.605c0 0 7.014-4.755 11.164-3.365.7.23 1.569 3.005 1.779 2.005 4.995 12.026 7.36 15.51 9.39 29.75.359 2.515-17.16 2.146-18.02.753z" fill-opacity=".1" fill-rule="nonzero"/>
  <path d="M512.95558 429.60904L492.20625 459.048c-.27015.38158-.72902.64311-1.1293.64311h-39.4715l20.36924-30.22354c13.47189-.38158 26.82017-.47396 40.64442-1.0473.4589.03937.67126.44082.48454.91673-.03625.09237-.08622.18397-.14807.27205z" fill="#656478" fill-rule="nonzero"/>
  <path d="M493.36969 455.45316l-3.8158-94.66222c-.1255-3.10916-2.73498-5.59001-5.84648-5.55805l-150.65196 1.44213c-3.15476.03235-5.73228 2.63676-5.73228 5.79152 0 .16915.0074.33831.02222.50708l7.959 90.68662c.25763 2.93883 2.72134 5.23494 5.67108 5.28522l146.50487 2.53347a8.2514 8.2514 0 0 0 .09822.00078c3.17931 0 5.7958-2.6161 5.7958-5.7958a5.6957 5.6957 0 0 0-.00467-.23075z" fill="#3f3d56" fill-rule="nonzero"/>
  <ellipse cx="572.5" cy="467" rx="17" ry="20" fill="#1daeea" transform="matrix(-.38976 0 0 .38976 632.372 216.227)"/>
  <circle cx="822.99" cy="92.87" r="21.63" fill="#1daeea" fill-opacity=".1"/>
  <circle cx="918.99" cy="145.87" r="17.01" fill="#1daeea" fill-opacity=".1"/>
  <circle cx="966.57" cy="63.9" r="6" fill="#1daeea" fill-opacity=".1"/>
  <path d="M124.15 689.52s7.13 9.33-3.29 23.41-19 26-15.55 34.76c0 0 15.73-26.16 28.54-26.52 12.81-.36 4.44-15.9-9.7-31.65z" fill="#1daeea" fill-rule="nonzero"/>
  <path d="M124.15 689.52c.623.899 1.115 1.882 1.46 2.92 12.49 14.68 19.15 28.38 7.14 28.73-11.19.32-24.61 20.32-27.82 25.37.101.391.228.776.38 1.15.152.374 15.73-26.16 28.54-26.52 12.81-.36 4.44-15.9-9.7-31.65z" fill-opacity=".1" fill-rule="nonzero"/>
  <path d="M137.41 701.41c0 3.28-.37 5.94-.82 5.94-.45 0-.82-2.66-.82-5.94 0-3.28.46-1.74.91-1.74s.73-1.55.73 1.74z" fill="#ffd037" fill-rule="nonzero"/>
  <path d="M141.96 705.33c-2.88 1.57-5.39 2.52-5.61 2.12-.22-.4 1.94-2 4.83-3.57 2.89-1.57 1.74-.43 2 0s1.67-.12-1.22 1.45z" fill="#ffd037" fill-rule="nonzero"/>
  <path d="M86.46 689.52s-7.13 9.33 3.29 23.41 19 26 15.56 34.76c0 0-15.74-26.16-28.54-26.52-12.8-.36-4.4-15.9 9.69-31.65z" fill="#1daeea" fill-rule="nonzero"/>
  <path d="M86.46 689.52c-.623.899-1.115 1.882-1.46 2.92-12.49 14.68-19.15 28.38-7.14 28.73 11.19.32 24.61 20.32 27.83 25.37-.106.39-.232.774-.38 1.15-.148.376-15.74-26.16-28.54-26.52-12.8-.36-4.4-15.9 9.69-31.65z" fill-opacity=".1" fill-rule="nonzero"/>
  <path d="M73.2 701.41c0 3.28.37 5.94.82 5.94.45 0 .82-2.66.82-5.94 0-3.28-.46-1.74-.91-1.74s-.73-1.55-.73 1.74z" fill="#ffd037" fill-rule="nonzero"/>
  <path d="M68.65 705.33c2.88 1.57 5.39 2.52 5.61 2.12.22-.4-1.94-2-4.83-3.57-2.89-1.57-1.74-.43-2 0s-1.67-.12 1.22 1.45z" fill="#ffd037" fill-rule="nonzero"/>
  <ellipse cx="219.02" cy="842.35" rx="74.6" ry="11.45" fill="#1daeea" fill-opacity=".1" transform="rotate(-4.04983 -328.59696 2434.0478)"/>
  <path d="M143.7 735.12l-.36 2.91-.5 4.12-.2 1.71-.5 4.12-.22 1.72-.5 4.11-5.71 46.8c-.51 4.18-7.33 7.43-15.57 7.43H90.47c-8.24 0-15.05-3.25-15.56-7.43l-5.72-46.8-.5-4.11-.21-1.72-.51-4.12-.2-1.71-.5-4.12-.36-2.91c-.29-2.37 3.41-4.36 8.07-4.36h60.66c4.65 0 8.35 1.99 8.06 4.36z" fill="#65617d" fill-rule="nonzero"/>
  <path d="M143.34 738.04l-.5 4.11H67.76l-.5-4.11h76.08zM142.63 743.87l-.5 4.12H68.48l-.51-4.12h74.66zM141.91 749.7l-.5 4.11H69.19l-.5-4.11h73.22z" fill="#9d9cb5" fill-rule="nonzero"/>
  <path d="M701.13 403.44l27.32 1.39-45.03 14.18-23.06-1.33 40.77-14.24z" fill-opacity=".1" fill-rule="nonzero"/>
  <path d="M701.12 402.25l27.32 1.4-45.04 14.18-23.06-1.34 40.78-14.24z" fill="#fff" fill-rule="nonzero"/>
  <path d="M697.9 405.35c1.07-.47 2.23.38 3.38.58.66.12 1.34 0 2 .1 1.34.16 2.68 1 4 .57l-9.38-1.25zM696.5 406.19c1.07-.47 2.23.38 3.38.58.66.12 1.34 0 2 .1 1.34.16 2.68 1 3.95.56l-9.33-1.24zM693.29 407.87c1.07-.47 2.23.38 3.39.58.65.12 1.33 0 2 .1 1.34.16 2.68 1 4 .56l-9.39-1.24z" fill="#d3dae1" fill-rule="nonzero"/>
  <path d="M762.37 398.09s-3.42 15.92 11.79 17.8l.94-1.76s-11.81-11.09-12.73-16.04z" fill="#1daeea" fill-rule="nonzero"/>
  <path d="M779.94 414.01l-3.54.75-.35.07s-9.44-7.66-9.32-24.76c1.262 2.521 2.772 4.91 4.51 7.13 3.74 4.95 7.99 11.56 8.7 16.81z" fill="#1daeea" fill-rule="nonzero"/>
  <path d="M781.13 415.65c-.564.363-1.263.451-1.9.24-9.08-2.12-6-31.71-6-31.71.5.24 1.05 4 3.14 8.86 3.65 8.54 7.68 20.46 4.76 22.61zM801.29 398.09s.59 15.92-14.62 17.8l-.94-1.76s14.56-11.09 15.56-16.04z" fill="#1daeea" fill-rule="nonzero"/>
  <path d="M796.91 390.07c.12 17.1-12.14 24.76-12.14 24.76l-.36-.07-3.53-.75c.7-5.25 5-11.86 8.69-16.81 2.118-2.693 4.587-5.091 7.34-7.13z" fill="#1daeea" fill-rule="nonzero"/>
  <path d="M784.36 414.1c-.543.659-1.226 1.189-2 1.55-.241.105-.492.186-.75.24-2.23.53-3-1.09-2.88-3.82.21-4.88 3.27-13.33 6-19.65 1.313-3.109 3.253-5.915 5.7-8.24s-.14 23.09-6.07 29.92z" fill="#1daeea" fill-rule="nonzero"/>
  <path d="M781.82 373.8s-10.14 36-1.41 41.39c8.73 5.39 3.65-38.2 1.41-41.39z" fill="#1daeea" fill-rule="nonzero"/>
  <path d="M762.37 398.09s-3.42 15.92 11.79 17.8l.94-1.76s-11.81-11.09-12.73-16.04z" fill-opacity=".1" fill-rule="nonzero"/>
  <path d="M779.94 414.01l-3.54.75-.35.07s-9.44-7.66-9.32-24.76c1.262 2.521 2.772 4.91 4.51 7.13 3.74 4.95 7.99 11.56 8.7 16.81z" fill-opacity=".1" fill-rule="nonzero"/>
  <path d="M781.13 415.65c-.564.363-1.263.451-1.9.24-9.08-2.12-6-31.71-6-31.71.5.24 1.05 4 3.14 8.86 3.65 8.54 7.68 20.46 4.76 22.61zM801.29 398.09s.59 15.92-14.62 17.8l-.94-1.76s14.56-11.09 15.56-16.04z" fill-opacity=".1" fill-rule="nonzero"/>
  <path d="M796.91 390.07c.12 17.1-12.14 24.76-12.14 24.76l-.36-.07-3.53-.75c.7-5.25 5-11.86 8.69-16.81 2.118-2.693 4.587-5.091 7.34-7.13z" fill-opacity=".1" fill-rule="nonzero"/>
  <path d="M784.36 414.1c-.543.659-1.226 1.189-2 1.55-.241.105-.492.186-.75.24-2.23.53-3-1.09-2.88-3.82.21-4.88 3.27-13.33 6-19.65 1.313-3.109 3.253-5.915 5.7-8.24s-.14 23.09-6.07 29.92z" fill-opacity=".1" fill-rule="nonzero"/>
  <path d="M781.82 373.8s-10.14 36-1.41 41.39c8.73 5.39 3.65-38.2 1.41-41.39z" fill-opacity=".1" fill-rule="nonzero"/>
  <path d="M762.37 398.09s-2 15.92 13.2 17.8l.94-1.76s-13.22-11.09-14.14-16.04z" fill="#1daeea" fill-rule="nonzero"/>
  <path d="M781.35 414.01l-3.54.75-.35.07s-10.85-7.66-10.73-24.76c0 0 2.78 3 5.92 7.13 3.74 4.95 7.99 11.56 8.7 16.81z" fill="#1daeea" fill-rule="nonzero"/>
  <path d="M781.35 414.01l-3.54.75c-3.35-2.95-4.68-10.63-5.16-17.56 3.74 4.95 7.99 11.56 8.7 16.81z" fill-opacity=".1" fill-rule="nonzero"/>
  <path d="M782.55 415.65c-.568.362-1.27.45-1.91.24-9.08-2.12-7.42-31.71-7.42-31.71.5.24 2.47 4 4.55 8.86 3.67 8.54 7.69 20.46 4.78 22.61zM801.29 398.09s2 15.92-13.2 17.8l-.94-1.76s13.14-11.09 14.14-16.04z" fill="#1daeea" fill-rule="nonzero"/>
  <path d="M796.91 390.07c.12 17.1-10.73 24.76-10.73 24.76l-.35-.07-3.54-.75c.7-5.25 5-11.86 8.7-16.81 3.14-4.15 5.92-7.13 5.92-7.13z" fill="#1daeea" fill-rule="nonzero"/>
  <path d="M790.99 397.2c-.46 6.46-1.64 13.57-4.51 16.9-.201.235-.419.455-.65.66l-3.54-.75c.7-5.25 5-11.86 8.7-16.81z" fill-opacity=".1" fill-rule="nonzero"/>
  <path d="M785.77 414.1c-.54.662-1.224 1.192-2 1.55-.238.104-.486.184-.74.24-2.24.53-3-1.09-2.89-3.82.22-4.88 3.28-13.33 6-19.65 2-4.56 3.81-8 4.29-8.24 0 0 1.28 23.09-4.66 29.92z" fill="#1daeea" fill-rule="nonzero"/>
  <path d="M782.55 415.65c-.515-.004-1.018-.165-1.44-.46-4.27-2.66-4.36-12.65-3.34-22.15 3.67 8.54 7.69 20.46 4.78 22.61z" fill-opacity=".1" fill-rule="nonzero"/>
  <path d="M785.77 414.1c-.49 1.06-1.15 1.62-2 1.55-.432-.063-.845-.22-1.21-.46-1.108-.766-1.954-1.856-2.42-3.12.22-4.88 3.28-13.33 6-19.65.98 8.77 1.31 18.08-.37 21.68z" fill-opacity=".1" fill-rule="nonzero"/>
  <path d="M781.82 373.8s-8.72 36 0 41.39c8.72 5.39 2.24-38.2 0-41.39z" fill="#1daeea" fill-rule="nonzero"/>
  <path d="M795.5 416.96l-.61 3.18-2.22 11.67h-21.11l-2.22-11.67-.61-3.18h26.77z" fill="#65617d" fill-rule="nonzero"/>
  <path d="M795.5 416.96l-.61 3.18h-25.55l-.61-3.18h26.77z" fill-opacity=".1" fill-rule="nonzero"/>
  <path fill="#65617d" d="M763.66 413.42h36.31v6.01h-36.31z"/>
  <path d="M861.36 464.27s77.18 28.827 55.51 136.019c-4.68 23.167-22.66 89.981-125.51 120.981v7l43.63-12.17 29.62-16.33 22.61-20.29 27.64-33.71 12.83-27.5 4.7-36.22 2.67-41.36-6.61-35.42-15.59-23.07-19-14.78-32.5-3.15z" fill="#d9d6df" fill-rule="nonzero"/>
  <path d="M200.02 657.42c-6.78 36-1.52 73.45 16.18 105.56 51.61 93.62 161.29 66.07 193.65 55.45 7.7-2.53 15.5-4.72 23.4-6.51l356.44-80.78c122.67-21.33 148-120.67 148-120.67 24.29-76.62 7.64-121.26-14.34-146.56-17.63-20.054-43.556-30.89-70.21-29.34l-42.28 2.24-375.83 41c-175.69 1.88-222.62 113.71-235.01 179.61zm34.81 4.51c11.85-56.66 58.33-138.84 207.82-143.91 6.86-.24 13.71-.84 20.52-1.75l333.741-43.198c28.556-3.004 33.735-2.895 41.531-3.135 28.41-3.59 57.128 11.194 73.438 35.943 15.48 23.29 23.85 60 4.7 117.07 0 0-23.43 86.72-136.87 105.35l-329.23 70.5c-7.49 1.6-14.89 3.56-22.2 5.82-29.86 9.22-129.15 32.6-177.38-45.92-17.73-28.87-23.01-63.61-16.07-96.77z" fill="#e1dee5" fill-rule="nonzero"/>
</svg>
